HIERARCHY
ROOT Hips
{
  OFFSET 13.6774 106.653 -34.4427
  CHANNELS 6 Xposition Yposition Zposition Zrotation Xrotation Yrotation
  JOINT ToSpine
  {
    OFFSET -2.69724 7.43032 -0.144315
    CHANNELS 3 Zrotation Xrotation Yrotation
    JOINT Spine
    {
      OFFSET -0.0310711 10.7595 1.96963
      CHANNELS 3 Zrotation Xrotation Yrotation
      JOINT Spine1
      {
        OFFSET 19.9056 3.91189 0.764692
        CHANNELS 3 Zrotation Xrotation Yrotation
        JOINT Neck
        {
          OFFSET 25.9749 7.03908 -0.130764
          CHANNELS 3 Zrotation Xrotation Yrotation
          JOINT Head
          {
            OFFSET 9.52751 0.295786 -0.907742
            CHANNELS 3 Zrotation Xrotation Yrotation
            End Site
            {
              OFFSET 16.4037 0.713936 2.7358
            }
          }
        }
        JOINT LeftShoulder
        {
          OFFSET 17.7449 4.33886 11.7777
          CHANNELS 3 Zrotation Xrotation Yrotation
          JOINT LeftArm
          {
            OFFSET 0.911315 1.27913 9.80584
            CHANNELS 3 Zrotation Xrotation Yrotation
            JOINT LeftForeArm
            {
              OFFSET 28.6126 1.18197 -3.53199
              CHANNELS 3 Zrotation Xrotation Yrotation
              JOINT LeftHand
              {
                OFFSET 27.5088 0.0218783 0.327423
                CHANNELS 3 Zrotation Xrotation Yrotation
                End Site
                {
                  OFFSET 18.6038 -0.000155887 0.382096
                }
              }
            }
          }
        }
        JOINT RightShoulder
        {
          OFFSET 17.1009 2.89543 -12.2328
          CHANNELS 3 Zrotation Xrotation Yrotation
          JOINT RightArm
          {
            OFFSET 1.4228 0.178766 -10.211
            CHANNELS 3 Zrotation Xrotation Yrotation
            JOINT RightForeArm
            {
              OFFSET 28.733 1.87905 2.64907
              CHANNELS 3 Zrotation Xrotation Yrotation
              JOINT RightHand
              {
                OFFSET 27.4588 0.290562 -0.101845
                CHANNELS 3 Zrotation Xrotation Yrotation
                End Site
                {
                  OFFSET 17.8396 -0.255518 -0.000602873
                }
              }
            }
          }
        }
      }
    }
  }
  JOINT LeftUpLeg
  {
    OFFSET -5.61296 -2.22332 -10.2353
    CHANNELS 3 Zrotation Xrotation Yrotation
    JOINT LeftLeg
    {
      OFFSET 2.56703 -44.7417 -7.93097
      CHANNELS 3 Zrotation Xrotation Yrotation
      JOINT LeftFoot
      {
        OFFSET 3.16933 -46.5642 -3.96578
        CHANNELS 3 Zrotation Xrotation Yrotation
        JOINT LeftToeBase
        {
          OFFSET 0.346054 -6.02161 12.8035
          CHANNELS 3 Zrotation Xrotation Yrotation
          End Site
          {
            OFFSET 0.134235 -1.35082 5.13018
          }
        }
      }
    }
  }
  JOINT RightUpLeg
  {
    OFFSET -5.7928 -1.72406 10.6446
    CHANNELS 3 Zrotation Xrotation Yrotation
    JOINT RightLeg
    {
      OFFSET -2.57161 -44.7178 -7.85259
      CHANNELS 3 Zrotation Xrotation Yrotation
      JOINT RightFoot
      {
        OFFSET -3.10148 -46.5936 -4.03391
        CHANNELS 3 Zrotation Xrotation Yrotation
        JOINT RightToeBase
        {
          OFFSET -0.0828122 -6.13587 12.8035
          CHANNELS 3 Zrotation Xrotation Yrotation
          End Site
          {
            OFFSET -0.131328 -1.35082 5.13018
          }
        }
      }
    }
  }
}
MOTION
Frames: 8
Frame Time: 0.03333333333333333
0.0000 93.1000 0.0000 -64.7482 -44.4700 -159.4764 -70.3796 0.3323 87.5874 90.6075 77.1455 -1.2802 -5.4453 27.1923 1.8356 -144.1254 20.1816 180.0409 -157.3817 58.2501 178.4116 -0.5829 -17.2409 -32.4403 -110.8148 27.0345 -95.5920 20.0503 2.2390 -85.8900 0.2639 -1.0925 0.1899 -3.3038 11.5750 33.3056 -77.2952 -28.1977 149.3701 17.9072 0.9513 94.2454 -0.1669 0.9987 -0.3328 -37.8879 9.3952 97.0786 -3.0361 47.7035 -0.2501 0.8081 -10.7043 -0.4331 1.8332 -5.4768 1.5158 -52.3247 -9.0598 85.1984 -2.2890 45.8256 -23.0541 -18.7132 -7.4610 1.5637 -0.6556 -7.6142 7.0204 
0.0000 93.1000 0.0000 -64.9606 -40.0559 -161.3497 -70.5188 2.0754 87.4622 92.6778 76.3914 -2.1342 -4.6774 26.7210 2.4572 -145.9194 19.1952 180.7083 -152.5175 57.1807 174.5923 0.2135 -17.1138 -32.0192 -115.3423 24.8221 -93.4400 19.3951 0.8053 -85.8948 -0.3393 -0.4206 0.2115 -1.3947 10.2719 36.5212 -71.2615 -23.1360 150.0883 16.9940 1.6105 97.8378 1.0840 0.2399 0.8133 -34.8436 10.7186 96.6410 -2.6544 48.3839 1.5396 0.5983 -11.9436 -2.5253 1.1132 -3.8725 2.1491 -51.8600 -10.8354 85.9184 -1.3423 38.7848 -20.3642 -19.6493 -8.7232 4.1700 0.2666 -5.7841 5.1626 
0.0000 93.1000 0.0000 -65.0406 -35.0194 -162.6719 -70.5186 0.2364 87.5104 96.7464 75.6228 -3.8057 -4.8596 25.3676 3.4520 -147.3188 19.0554 -173.0974 -152.6364 55.8133 175.4480 -0.8123 -18.2111 -30.8635 -119.8496 19.5281 -89.4354 16.8739 1.3847 -86.0511 -0.1372 -0.7126 -0.4556 -3.2594 9.8048 37.1329 -65.1990 -19.8602 150.2132 18.0148 3.7335 99.5755 -0.0466 0.5964 -0.6098 -32.7737 11.1647 95.7178 -2.2313 48.5944 3.3509 -0.9187 -11.0215 -0.6245 0.9296 -4.9018 2.4538 -51.7719 -12.3689 88.8959 -2.2044 34.9281 -14.1208 -18.4901 -4.5109 1.9102 -0.6113 -8.6498 8.1377 
0.0000 93.1000 0.0000 -63.8040 -30.9326 -163.2460 -70.6460 0.2485 87.9321 90.7816 74.7267 0.6924 -3.7208 24.2383 3.7099 -146.3712 17.5879 -170.8828 -150.8390 54.2364 175.5190 -0.7466 -17.8446 -29.9014 -124.3122 12.7505 -85.4589 15.1635 1.7669 -83.9311 0.0599 -0.5857 -0.4407 -3.1542 9.1952 38.3092 -59.2354 -18.2471 149.3442 15.6474 3.1405 101.4180 0.0740 0.5083 -0.0233 -31.3977 12.4082 96.8682 -1.6916 47.7623 3.3108 -1.0875 -9.9735 -0.6509 1.0278 -5.0802 1.8400 -50.1761 -15.0013 87.1418 -2.9741 30.9925 -0.3373 -17.8623 -1.9392 1.7093 0.8169 -14.2062 3.7397 
0.0000 93.1000 0.0000 -61.9609 -28.3444 -164.4962 -70.6017 0.0469 88.0925 79.8920 72.9448 10.0651 -1.3440 22.0981 3.4073 -147.1621 16.1258 -168.5527 -149.3395 52.1121 176.5511 -0.8515 -17.8855 -28.7803 -127.3079 6.6251 -81.2590 14.0829 1.4551 -82.9225 0.1195 -0.5881 -0.0825 -3.3145 8.3503 38.1569 -54.1262 -17.6589 148.9432 15.5146 2.5604 102.2772 0.2498 0.6097 -0.1506 -31.0161 15.0746 100.8750 -2.1722 45.6945 4.1100 -1.3525 -8.9730 -0.2269 0.8256 -2.7891 -0.5226 -47.9122 -16.6833 81.9777 -3.8630 28.4953 10.7570 -17.8709 0.0775 1.3374 2.5773 -20.1994 4.6953 
0.0000 93.1000 0.0000 -62.0977 -25.5347 -165.1051 -70.9345 -2.2849 87.9906 78.8973 71.2522 11.9035 0.6376 20.6689 1.1533 -146.9593 14.6356 -166.5179 -148.0409 50.3688 179.2897 -2.2668 -17.6731 -28.0354 -129.7635 0.9232 -78.7889 13.0515 0.7585 -81.6191 -0.5884 -0.1000 1.4014 -4.8340 8.0903 38.1135 -49.0327 -16.9820 147.9949 15.6294 4.1430 103.4745 -1.0215 0.0388 -1.3818 -31.4581 20.1261 105.0675 -2.0060 44.9139 2.3844 -1.1240 -6.5419 1.3898 1.8513 -4.8346 -3.2955 -47.0379 -14.9761 80.7877 -1.2255 25.9762 8.5307 -14.0391 0.6518 -2.1124 1.9763 -22.6289 14.3477 
0.0000 93.1000 0.0000 -62.8351 -21.8567 -165.0486 -71.1311 -0.9573 87.6876 80.9253 70.2539 8.8276 0.6711 19.7207 1.7543 -144.9068 12.8663 -165.6199 -145.8800 48.5569 -179.6323 -1.8355 -17.1816 -28.9077 -131.9909 -3.6033 -76.6491 13.0876 2.1073 -80.8616 0.1109 0.2520 0.2462 -3.2326 7.0590 38.2924 -47.0476 -17.1936 145.8700 16.5828 5.3608 104.5261 -0.4217 -0.5692 -0.7232 -31.0447 24.9949 107.2921 -2.8763 45.7212 -0.4922 -2.3874 -3.2867 -0.0422 3.6224 -7.1746 -2.8571 -46.3223 -13.0079 80.6612 -1.8994 24.9228 4.5762 -12.8747 0.1552 -0.1517 2.1860 -23.3812 21.6430 
0.0000 93.1000 0.0000 -62.4858 -22.1909 -166.5207 -70.7085 1.8077 87.7089 83.1226 69.2238 4.7070 1.2824 17.7043 2.6416 -143.9170 12.1578 -166.5404 -143.7505 46.9812 -179.8780 -0.0522 -17.4976 -28.9073 -135.2129 -5.9875 -75.3994 12.8200 1.9512 -80.3301 0.4581 -0.4474 -0.9537 -1.2951 6.8059 37.2117 -46.3193 -17.9819 144.7180 17.1586 4.5561 105.2081 0.3804 0.2825 0.4011 -30.1540 26.3570 106.8117 -3.1543 47.0194 -2.3947 -3.1292 -2.3750 -1.2846 3.0174 -6.6428 -0.7034 -45.5924 -12.4845 82.1493 -1.8903 26.3105 4.6340 -11.2540 -3.7091 2.4861 3.6477 -22.0622 20.9658 
